<mxfile host="app.diagrams.net" modified="2023-08-29T22:50:21.118Z" agent="Mozilla/5.0 (Windows NT 10.0; Win64; x64) AppleWebKit/537.36 (KHTML, like Gecko) Chrome/116.0.0.0 Safari/537.36 Edg/116.0.1938.62" version="21.7.0" etag="hLLxa53Fye7vjrzXxQoi" type="github">
  <diagram name="PÃ¡gina-1" id="8wVhakmm8C7UxJdtk267">
    <mxGraphModel>
      <root>
        <mxCell id="0" />
        <mxCell id="1" parent="0" />
      </root>
    </mxGraphModel>
  </diagram>
</mxfile>
